<svg width="100" height="44" viewBox="0 0 100 44" fill="none" xmlns="http://www.w3.org/2000/svg">
<path d="M49.2366 7.00266C45.3469 7.07668 40.6629 7.75215 37.9425 9.38469C36.1883 10.448 34.0315 12.6133 33.3696 15.9469C32.7077 19.2805 33.0137 22.5273 33.6665 25.8643C34.3193 29.2013 35.6268 32.937 39.2488 34.8612C42.8708 36.7854 45.3 37.0137 50.2642 36.9994C55.2284 37.0137 57.6576 36.7854 61.2797 34.8612C64.9017 32.937 66.2092 29.2013 66.862 25.8643C67.5148 22.5273 67.8207 19.2805 67.1588 15.9469C66.497 12.6133 64.3401 10.448 62.586 9.38469C59.0515 7.44043 55.1629 7.0675 51.2919 7.00266C50.5868 7.00735 49.8894 6.99479 49.2366 7.00266ZM54.3017 7.90004C55.738 8.03707 59.332 8.31563 62.0218 9.91933C64.7116 11.523 65.914 13.5624 66.4163 16.0359C66.9186 18.5094 66.8749 21.6376 66.1789 25.597C65.4829 29.5564 63.5353 32.8506 60.8934 34.238C58.2516 35.6253 54.8978 36.3595 50.2642 36.2879C45.6307 36.3595 42.2768 35.6253 39.635 34.238C36.9932 32.8506 35.0456 29.5564 34.3495 25.597C33.6535 21.6376 33.6098 18.5094 34.1121 16.0359C34.6145 13.5624 35.8168 11.523 38.5066 9.91933C41.1965 8.31563 44.7905 8.03707 46.2268 7.90004C48.9092 7.67738 51.653 7.65991 54.3017 7.90004ZM49.3733 8.58841C47.1684 8.6159 44.808 8.88572 43.1927 9.23286C41.3466 9.62959 40.7155 9.76967 39.1235 10.7221C37.5314 11.6744 35.5739 13.6136 34.9732 16.5993C34.3725 19.5851 34.6503 22.4934 35.2428 25.4823C35.8352 28.4711 37.0217 31.8171 40.309 33.5405C45.7723 36.3859 54.8933 36.2727 60.2195 33.5405C63.5067 31.8171 64.6932 28.4711 65.2857 25.4823C65.8781 22.4934 66.156 19.5851 65.5553 16.5993C64.9546 13.6136 62.997 11.6744 61.405 10.7221C59.813 9.76967 59.1818 9.62958 57.3357 9.23286C55.7204 8.88572 53.3601 8.6159 51.1552 8.58841C50.5438 8.59306 49.9394 8.58172 49.3733 8.58841ZM53.7099 10.0242C54.3093 10.0804 55.3454 10.1662 56.5167 10.3919C56.6901 10.4276 56.7877 10.4837 56.7496 10.6486C54.8659 15.2174 52.8538 19.7881 50.7549 24.3569C50.472 24.9628 50.1145 24.9862 49.825 24.469C47.7074 19.8628 45.678 15.2548 43.7788 10.6486C43.7407 10.4837 43.8383 10.4276 44.0117 10.3919C45.1831 10.1662 46.2191 10.0804 46.8186 10.0242C49.1077 9.83588 51.457 9.82312 53.7099 10.0242ZM42.1177 10.8887C42.225 10.8859 42.2609 10.9568 42.2571 11.0909L42.2586 11.0867V18.7746C42.2586 21.2011 42.6553 22.3391 43.7285 24.3176L48.8716 33.7885C49.0472 34.1232 48.7623 34.1013 48.4528 34.1047C45.3862 33.973 43.0381 33.3767 41.125 32.3891C38.843 31.211 37.1605 28.4139 36.5593 25.0517C35.9581 21.6896 35.9202 19.0333 36.3541 16.9329C36.788 14.8325 37.8265 13.1005 40.15 11.7387C40.7293 11.3991 41.3573 11.1296 41.9928 10.9144C42.0421 10.8985 42.0838 10.8895 42.1177 10.8887ZM58.4107 10.8887C58.4447 10.8895 58.4864 10.8985 58.5356 10.9144C59.1711 11.1296 59.7991 11.3991 60.3785 11.7387C62.7019 13.1005 63.7405 14.8325 64.1744 16.9329C64.6083 19.0333 64.5704 21.6896 63.9692 25.0517C63.3679 28.4139 61.6855 31.211 59.4035 32.3891C57.4904 33.3767 55.1423 33.973 52.0756 34.1047C51.7661 34.1013 51.4813 34.1232 51.6569 33.7885L56.8 24.3176C57.8731 22.3391 58.2698 21.2011 58.2698 18.7746V11.0867L58.2714 11.0909C58.2675 10.9568 58.3034 10.8859 58.4107 10.8887Z" fill="white"/>
</svg>
